<svg xmlns="http://www.w3.org/2000/svg" xmlns:xlink="http://www.w3.org/1999/xlink" width="180" zoomAndPan="magnify" viewBox="0 0 135 56.999997" height="76" preserveAspectRatio="xMidYMid meet" version="1.0"><defs><g/><clipPath id="5ed8eb1d9c"><path d="M 1.929688 3.957031 L 56 3.957031 L 56 52.707031 L 1.929688 52.707031 Z M 1.929688 3.957031 " clip-rule="nonzero"/></clipPath></defs><g clip-path="url(#5ed8eb1d9c)"><path fill="#00004d" d="M 4.257812 26.597656 C 5.546875 26.597656 6.589844 27.640625 6.589844 28.925781 C 6.589844 30.214844 5.546875 31.257812 4.257812 31.257812 C 2.972656 31.257812 1.929688 30.214844 1.929688 28.925781 C 1.929688 27.640625 2.972656 26.597656 4.257812 26.597656 M 5.742188 13.492188 C 6.839844 13.492188 7.734375 14.382812 7.734375 15.484375 C 7.734375 16.585938 6.839844 17.476562 5.742188 17.476562 C 4.640625 17.476562 3.75 16.585938 3.75 15.484375 C 3.75 14.382812 4.640625 13.492188 5.742188 13.492188 Z M 14.289062 19.53125 C 16.023438 19.53125 17.425781 20.9375 17.425781 22.667969 C 17.425781 24.398438 16.023438 25.804688 14.289062 25.804688 C 12.558594 25.804688 11.152344 24.398438 11.152344 22.667969 C 11.152344 20.933594 12.558594 19.53125 14.289062 19.53125 Z M 17.914062 7.460938 C 19.515625 7.460938 20.816406 8.757812 20.816406 10.363281 C 20.816406 11.964844 19.515625 13.265625 17.914062 13.265625 C 16.3125 13.265625 15.011719 11.964844 15.011719 10.363281 C 15.011719 8.757812 16.3125 7.460938 17.914062 7.460938 Z M 35.09375 9.503906 L 40.820312 17.902344 L 41.050781 17.898438 C 43.929688 17.898438 46.269531 20.234375 46.269531 23.113281 C 46.269531 25.996094 43.929688 28.335938 41.050781 28.335938 C 39.695312 28.335938 38.414062 27.808594 37.457031 26.898438 L 34.324219 28.035156 C 33.996094 29.148438 33.230469 30.070312 32.234375 30.609375 C 33.054688 30.882812 33.777344 31.40625 34.289062 32.109375 L 38.210938 32.09375 C 38.96875 31.105469 40.148438 30.5 41.433594 30.5 C 43.671875 30.5 45.488281 32.316406 45.488281 34.554688 C 45.488281 36.796875 43.671875 38.609375 41.433594 38.609375 C 40.15625 38.609375 38.980469 38.011719 38.222656 37.035156 L 34.25 37.050781 C 33.625 37.890625 32.699219 38.464844 31.660156 38.652344 L 30.175781 41.828125 C 30.34375 42.265625 30.429688 42.730469 30.429688 43.207031 C 30.429688 44.429688 29.859375 45.519531 28.96875 46.226562 C 31.535156 46.953125 33.84375 48.457031 35.554688 50.558594 L 44.011719 50.558594 L 47.078125 44.511719 C 51.296875 43.453125 54.273438 43.605469 52.742188 38.472656 C 54.105469 37.171875 54.945312 36.695312 53.410156 35.558594 C 54.050781 35.230469 54.25 34.910156 54.34375 34.472656 L 53.234375 32.371094 C 55.453125 31.101562 56.46875 29.832031 55.683594 28.929688 L 50.628906 23.121094 C 49.769531 12.535156 42.839844 7.738281 35.40625 7.332031 C 35.414062 7.449219 35.417969 7.566406 35.417969 7.6875 C 35.417969 8.3125 35.308594 8.925781 35.09375 9.503906 Z M 33.910156 7.308594 C 33.71875 5.429688 32.132812 3.960938 30.199219 3.960938 C 28.140625 3.960938 26.472656 5.628906 26.472656 7.6875 C 26.472656 8.089844 26.535156 8.480469 26.652344 8.84375 C 27.140625 10.335938 28.542969 11.417969 30.199219 11.417969 C 30.824219 11.417969 31.410156 11.261719 31.925781 10.992188 L 38.402344 20.488281 C 37.734375 21.164062 37.320312 22.089844 37.320312 23.113281 L 37.324219 23.273438 L 32.402344 25.058594 C 31.886719 24.402344 31.085938 23.984375 30.1875 23.984375 C 28.628906 23.984375 27.363281 25.25 27.363281 26.808594 C 27.363281 28.371094 28.628906 29.632812 30.1875 29.632812 C 31.707031 29.632812 32.945312 28.433594 33.007812 26.925781 L 37.921875 25.144531 C 38.589844 26.167969 39.738281 26.84375 41.050781 26.84375 C 43.109375 26.84375 44.777344 25.171875 44.777344 23.113281 C 44.777344 21.054688 43.109375 19.386719 41.050781 19.386719 C 40.726562 19.386719 40.410156 19.425781 40.109375 19.503906 L 33.382812 9.632812 C 33.730469 9.066406 33.929688 8.402344 33.929688 7.6875 C 33.929688 7.558594 33.921875 7.433594 33.910156 7.308594 Z M 25.253906 41.253906 C 24.628906 41.679688 24.21875 42.394531 24.21875 43.203125 C 24.21875 44.425781 25.152344 45.433594 26.34375 45.554688 C 26.421875 45.5625 26.5 45.566406 26.582031 45.566406 C 27.882812 45.566406 28.941406 44.507812 28.941406 43.203125 C 28.941406 42.703125 28.785156 42.238281 28.519531 41.859375 L 30.6875 37.214844 L 30.921875 37.226562 C 32.042969 37.226562 33 36.539062 33.398438 35.566406 L 39.066406 35.539062 C 39.453125 36.46875 40.367188 37.121094 41.433594 37.121094 C 42.851562 37.121094 44 35.972656 44 34.554688 C 44 33.140625 42.851562 31.992188 41.433594 31.992188 C 40.363281 31.992188 39.449219 32.644531 39.0625 33.578125 L 33.417969 33.601562 C 33.035156 32.597656 32.0625 31.886719 30.925781 31.886719 C 30.042969 31.886719 29.261719 32.3125 28.773438 32.972656 L 24.101562 30.414062 C 24.152344 30.191406 24.175781 29.960938 24.175781 29.726562 C 24.175781 28.722656 23.722656 27.824219 23.007812 27.226562 L 24.960938 22.394531 C 25.167969 22.421875 25.375 22.433594 25.582031 22.433594 C 28.25 22.433594 30.410156 20.273438 30.410156 17.605469 C 30.410156 14.9375 28.25 12.773438 25.582031 12.773438 C 22.914062 12.773438 20.753906 14.9375 20.753906 17.605469 C 20.753906 19.367188 21.695312 20.90625 23.101562 21.75 L 21.191406 26.480469 L 20.921875 26.46875 C 19.125 26.46875 17.664062 27.925781 17.664062 29.726562 C 17.664062 31.523438 19.125 32.980469 20.921875 32.980469 C 21.773438 32.980469 22.546875 32.652344 23.128906 32.117188 L 28.28125 34.941406 C 28.355469 35.472656 28.589844 35.953125 28.933594 36.335938 L 26.820312 40.855469 L 26.582031 40.84375 C 26.089844 40.84375 25.632812 40.996094 25.253906 41.253906 Z M 30.1875 22.496094 C 31.125 22.496094 32.019531 22.796875 32.757812 23.34375 L 35.910156 22.199219 C 36.023438 21.578125 36.242188 20.984375 36.566406 20.441406 L 31.34375 12.78125 C 30.96875 12.863281 30.585938 12.90625 30.199219 12.90625 L 29.792969 12.890625 C 31.085938 14.050781 31.902344 15.730469 31.902344 17.605469 C 31.902344 19.605469 30.972656 21.386719 29.519531 22.546875 C 29.738281 22.511719 29.960938 22.496094 30.1875 22.496094 Z M 25.203125 47.613281 C 26.703125 47.613281 27.917969 48.828125 27.917969 50.324219 C 27.917969 51.824219 26.703125 53.039062 25.203125 53.039062 C 23.707031 53.039062 22.492188 51.824219 22.492188 50.324219 C 22.492188 48.828125 23.707031 47.613281 25.203125 47.613281 Z M 16.769531 43.503906 C 18.265625 43.503906 19.480469 44.71875 19.480469 46.214844 C 19.480469 47.714844 18.265625 48.929688 16.769531 48.929688 C 15.273438 48.929688 14.058594 47.714844 14.058594 46.214844 C 14.058594 44.71875 15.273438 43.503906 16.769531 43.503906 Z M 12.578125 34.097656 C 13.84375 34.097656 14.867188 35.121094 14.867188 36.382812 C 14.867188 37.648438 13.84375 38.671875 12.578125 38.671875 C 11.316406 38.671875 10.292969 37.644531 10.292969 36.382812 C 10.292969 35.121094 11.316406 34.097656 12.578125 34.097656 Z M 12.578125 34.097656 " fill-opacity="1" fill-rule="evenodd"/></g><g fill="#00004d" fill-opacity="1"><g transform="translate(56.468854, 45.081817)"><g><path d="M 9.5 0 L 13.027344 0 L 9.410156 -6.425781 C 13.988281 -7.753906 13.441406 -15.578125 7.886719 -15.578125 L 1.742188 -15.578125 L 1.742188 0 L 4.859375 0 L 4.859375 -5.949219 L 6.363281 -5.949219 Z M 4.859375 -8.976562 L 4.859375 -12.460938 L 7.601562 -12.460938 C 9.714844 -12.460938 9.714844 -8.976562 7.601562 -8.976562 Z M 4.859375 -8.976562 "/></g></g></g><g fill="#00004d" fill-opacity="1"><g transform="translate(68.622084, 45.081817)"><g><path d="M 0.347656 0 L 3.878906 0 L 4.488281 -1.675781 L 9.652344 -1.675781 L 10.28125 0 L 13.789062 0 L 7.234375 -16.144531 L 6.90625 -16.144531 Z M 5.621094 -4.597656 L 7.082031 -8.648438 L 8.496094 -4.597656 Z M 5.621094 -4.597656 "/></g></g></g><g fill="#00004d" fill-opacity="1"><g transform="translate(81.646541, 45.081817)"><g><path d="M 11.65625 -11.960938 L 12.027344 -15.164062 C 11.089844 -15.578125 10.042969 -15.773438 8.953125 -15.773438 C -1.589844 -15.773438 -1.613281 0.0429688 8.953125 0.0429688 C 10.042969 0.0429688 11.414062 -0.21875 12.375 -0.609375 L 11.960938 -3.835938 C 11.371094 -3.527344 10.304688 -3.136719 8.953125 -3.136719 C 2.789062 -3.136719 2.789062 -12.636719 8.953125 -12.636719 C 10.304688 -12.636719 11.066406 -12.265625 11.65625 -11.960938 Z M 11.65625 -11.960938 "/></g></g></g><g fill="#00004d" fill-opacity="1"><g transform="translate(93.560186, 45.081817)"><g><path d="M 4.859375 0 L 4.859375 -15.578125 L 1.742188 -15.578125 L 1.742188 0 Z M 4.859375 0 "/></g></g></g><g fill="#00004d" fill-opacity="1"><g transform="translate(98.983228, 45.081817)"><g><path d="M 4.859375 -8.476562 L 12.746094 0.328125 L 13.574219 0.328125 L 13.574219 -15.554688 L 10.433594 -15.554688 L 10.433594 -6.753906 L 2.570312 -15.902344 L 1.742188 -15.902344 L 1.742188 0 L 4.859375 0 Z M 4.859375 -8.476562 "/></g></g></g><g fill="#00004d" fill-opacity="1"><g transform="translate(113.118491, 45.081817)"><g><path d="M 12.984375 -0.957031 L 12.984375 -7.800781 L 9.824219 -7.800781 L 9.824219 -3.117188 C 9.542969 -3.070312 9.238281 -3.027344 8.953125 -3.027344 C 2.941406 -3.027344 2.65625 -12.332031 8.953125 -12.546875 C 10.609375 -12.59375 11.613281 -12.242188 12.222656 -11.980469 L 12.59375 -15.140625 C 12.308594 -15.226562 10.804688 -15.773438 8.953125 -15.707031 C -1.851562 -15.316406 -1.328125 0.0859375 8.953125 0.0859375 C 10.433594 0.0859375 11.785156 -0.285156 12.984375 -0.957031 Z M 12.984375 -0.957031 "/></g></g></g><g fill="#00004d" fill-opacity="1"><g transform="translate(56.468854, 25.377623)"><g><path d="M 1.09375 0 L 1.09375 -8.03125 L 2.109375 -8.03125 L 2.109375 0 Z M 1.09375 0 "/></g></g></g><g fill="#00004d" fill-opacity="1"><g transform="translate(59.685196, 25.377623)"><g><path d="M 1.09375 0 L 1.09375 -8.03125 L 2.109375 -8.03125 L 2.109375 0 Z M 1.09375 0 "/></g></g></g><g fill="#00004d" fill-opacity="1"><g transform="translate(62.901539, 25.377623)"><g><path d="M 2.765625 0 L 2.765625 -7.171875 L 0.34375 -7.171875 L 0.34375 -8.03125 L 6.21875 -8.03125 L 6.21875 -7.171875 L 3.796875 -7.171875 L 3.796875 0 Z M 2.765625 0 "/></g></g></g><g fill="#00004d" fill-opacity="1"><g transform="translate(69.456524, 25.377623)"><g/></g></g><g fill="#00004d" fill-opacity="1"><g transform="translate(71.902412, 25.377623)"><g><path d="M 1.09375 0 L 1.09375 -8.03125 L 3.484375 -8.03125 C 3.890625 -8.03125 4.257812 -7.992188 4.59375 -7.921875 C 4.9375 -7.847656 5.226562 -7.734375 5.46875 -7.578125 C 5.707031 -7.421875 5.894531 -7.21875 6.03125 -6.96875 C 6.164062 -6.71875 6.234375 -6.414062 6.234375 -6.0625 C 6.234375 -5.664062 6.132812 -5.304688 5.9375 -4.984375 C 5.738281 -4.660156 5.445312 -4.4375 5.0625 -4.3125 L 5.0625 -4.265625 C 5.550781 -4.179688 5.945312 -3.976562 6.25 -3.65625 C 6.550781 -3.34375 6.703125 -2.90625 6.703125 -2.34375 C 6.703125 -1.957031 6.628906 -1.613281 6.484375 -1.3125 C 6.335938 -1.019531 6.128906 -0.773438 5.859375 -0.578125 C 5.585938 -0.390625 5.265625 -0.242188 4.890625 -0.140625 C 4.515625 -0.046875 4.101562 0 3.65625 0 Z M 2.109375 -4.609375 L 3.296875 -4.609375 C 3.984375 -4.609375 4.476562 -4.726562 4.78125 -4.96875 C 5.082031 -5.207031 5.234375 -5.53125 5.234375 -5.9375 C 5.234375 -6.394531 5.078125 -6.722656 4.765625 -6.921875 C 4.453125 -7.117188 3.984375 -7.21875 3.359375 -7.21875 L 2.109375 -7.21875 Z M 2.109375 -0.8125 L 3.515625 -0.8125 C 4.203125 -0.8125 4.738281 -0.9375 5.125 -1.1875 C 5.507812 -1.445312 5.703125 -1.847656 5.703125 -2.390625 C 5.703125 -2.878906 5.515625 -3.238281 5.140625 -3.46875 C 4.765625 -3.707031 4.222656 -3.828125 3.515625 -3.828125 L 2.109375 -3.828125 Z M 2.109375 -0.8125 "/></g></g></g><g fill="#00004d" fill-opacity="1"><g transform="translate(79.093328, 25.377623)"><g><path d="M 4.0625 0.140625 C 3.550781 0.140625 3.085938 0.046875 2.671875 -0.140625 C 2.253906 -0.335938 1.894531 -0.617188 1.59375 -0.984375 C 1.289062 -1.347656 1.054688 -1.785156 0.890625 -2.296875 C 0.722656 -2.816406 0.640625 -3.398438 0.640625 -4.046875 C 0.640625 -4.691406 0.722656 -5.269531 0.890625 -5.78125 C 1.054688 -6.289062 1.289062 -6.722656 1.59375 -7.078125 C 1.894531 -7.429688 2.253906 -7.703125 2.671875 -7.890625 C 3.085938 -8.078125 3.550781 -8.171875 4.0625 -8.171875 C 4.570312 -8.171875 5.035156 -8.070312 5.453125 -7.875 C 5.867188 -7.6875 6.226562 -7.414062 6.53125 -7.0625 C 6.84375 -6.707031 7.082031 -6.273438 7.25 -5.765625 C 7.414062 -5.253906 7.5 -4.679688 7.5 -4.046875 C 7.5 -3.398438 7.414062 -2.816406 7.25 -2.296875 C 7.082031 -1.785156 6.84375 -1.347656 6.53125 -0.984375 C 6.226562 -0.617188 5.867188 -0.335938 5.453125 -0.140625 C 5.035156 0.046875 4.570312 0.140625 4.0625 0.140625 Z M 4.0625 -0.75 C 4.414062 -0.75 4.738281 -0.828125 5.03125 -0.984375 C 5.320312 -1.140625 5.570312 -1.359375 5.78125 -1.640625 C 5.988281 -1.929688 6.148438 -2.28125 6.265625 -2.6875 C 6.378906 -3.09375 6.4375 -3.546875 6.4375 -4.046875 C 6.4375 -4.546875 6.378906 -4.992188 6.265625 -5.390625 C 6.148438 -5.796875 5.988281 -6.132812 5.78125 -6.40625 C 5.570312 -6.6875 5.320312 -6.898438 5.03125 -7.046875 C 4.738281 -7.203125 4.414062 -7.28125 4.0625 -7.28125 C 3.707031 -7.28125 3.382812 -7.203125 3.09375 -7.046875 C 2.800781 -6.898438 2.550781 -6.6875 2.34375 -6.40625 C 2.132812 -6.132812 1.972656 -5.796875 1.859375 -5.390625 C 1.742188 -4.992188 1.6875 -4.546875 1.6875 -4.046875 C 1.6875 -3.546875 1.742188 -3.09375 1.859375 -2.6875 C 1.972656 -2.28125 2.132812 -1.929688 2.34375 -1.640625 C 2.550781 -1.359375 2.800781 -1.140625 3.09375 -0.984375 C 3.382812 -0.828125 3.707031 -0.75 4.0625 -0.75 Z M 4.0625 -0.75 "/></g></g></g><g fill="#00004d" fill-opacity="1"><g transform="translate(87.213684, 25.377623)"><g><path d="M 1.09375 0 L 1.09375 -8.03125 L 2.328125 -8.03125 L 3.859375 -3.75 C 3.960938 -3.46875 4.0625 -3.1875 4.15625 -2.90625 C 4.25 -2.625 4.34375 -2.34375 4.4375 -2.0625 L 4.484375 -2.0625 C 4.585938 -2.34375 4.679688 -2.625 4.765625 -2.90625 C 4.847656 -3.1875 4.941406 -3.46875 5.046875 -3.75 L 6.5625 -8.03125 L 7.796875 -8.03125 L 7.796875 0 L 6.84375 0 L 6.84375 -4.421875 C 6.84375 -4.773438 6.859375 -5.164062 6.890625 -5.59375 C 6.921875 -6.03125 6.945312 -6.429688 6.96875 -6.796875 L 6.921875 -6.796875 L 6.28125 -4.96875 L 4.765625 -0.8125 L 4.09375 -0.8125 L 2.578125 -4.96875 L 1.9375 -6.796875 L 1.890625 -6.796875 C 1.921875 -6.429688 1.945312 -6.03125 1.96875 -5.59375 C 2 -5.164062 2.015625 -4.773438 2.015625 -4.421875 L 2.015625 0 Z M 1.09375 0 "/></g></g></g><g fill="#00004d" fill-opacity="1"><g transform="translate(96.104493, 25.377623)"><g><path d="M 1.09375 0 L 1.09375 -8.03125 L 3.484375 -8.03125 C 3.890625 -8.03125 4.257812 -7.992188 4.59375 -7.921875 C 4.9375 -7.847656 5.226562 -7.734375 5.46875 -7.578125 C 5.707031 -7.421875 5.894531 -7.21875 6.03125 -6.96875 C 6.164062 -6.71875 6.234375 -6.414062 6.234375 -6.0625 C 6.234375 -5.664062 6.132812 -5.304688 5.9375 -4.984375 C 5.738281 -4.660156 5.445312 -4.4375 5.0625 -4.3125 L 5.0625 -4.265625 C 5.550781 -4.179688 5.945312 -3.976562 6.25 -3.65625 C 6.550781 -3.34375 6.703125 -2.90625 6.703125 -2.34375 C 6.703125 -1.957031 6.628906 -1.613281 6.484375 -1.3125 C 6.335938 -1.019531 6.128906 -0.773438 5.859375 -0.578125 C 5.585938 -0.390625 5.265625 -0.242188 4.890625 -0.140625 C 4.515625 -0.046875 4.101562 0 3.65625 0 Z M 2.109375 -4.609375 L 3.296875 -4.609375 C 3.984375 -4.609375 4.476562 -4.726562 4.78125 -4.96875 C 5.082031 -5.207031 5.234375 -5.53125 5.234375 -5.9375 C 5.234375 -6.394531 5.078125 -6.722656 4.765625 -6.921875 C 4.453125 -7.117188 3.984375 -7.21875 3.359375 -7.21875 L 2.109375 -7.21875 Z M 2.109375 -0.8125 L 3.515625 -0.8125 C 4.203125 -0.8125 4.738281 -0.9375 5.125 -1.1875 C 5.507812 -1.445312 5.703125 -1.847656 5.703125 -2.390625 C 5.703125 -2.878906 5.515625 -3.238281 5.140625 -3.46875 C 4.765625 -3.707031 4.222656 -3.828125 3.515625 -3.828125 L 2.109375 -3.828125 Z M 2.109375 -0.8125 "/></g></g></g><g fill="#00004d" fill-opacity="1"><g transform="translate(103.295409, 25.377623)"><g><path d="M 2.484375 -4.484375 L 2.109375 -3.265625 L 4.515625 -3.265625 L 4.140625 -4.484375 C 3.992188 -4.929688 3.851562 -5.378906 3.71875 -5.828125 C 3.59375 -6.273438 3.460938 -6.726562 3.328125 -7.1875 L 3.28125 -7.1875 C 3.15625 -6.726562 3.023438 -6.273438 2.890625 -5.828125 C 2.765625 -5.378906 2.628906 -4.929688 2.484375 -4.484375 Z M 0.03125 0 L 2.75 -8.03125 L 3.90625 -8.03125 L 6.625 0 L 5.53125 0 L 4.765625 -2.453125 L 1.84375 -2.453125 L 1.078125 0 Z M 0.03125 0 "/></g></g></g><g fill="#00004d" fill-opacity="1"><g transform="translate(109.948229, 25.377623)"><g><path d="M 2.390625 0 L 2.390625 -3.109375 L -0.015625 -8.03125 L 1.078125 -8.03125 L 2.109375 -5.765625 C 2.242188 -5.472656 2.367188 -5.179688 2.484375 -4.890625 C 2.609375 -4.609375 2.742188 -4.316406 2.890625 -4.015625 L 2.9375 -4.015625 C 3.070312 -4.316406 3.207031 -4.609375 3.34375 -4.890625 C 3.488281 -5.179688 3.625 -5.472656 3.75 -5.765625 L 4.765625 -8.03125 L 5.828125 -8.03125 L 3.421875 -3.109375 L 3.421875 0 Z M 2.390625 0 "/></g></g></g></svg>